# xmcd
#
# Track frame offsets: 
#        150
#        17507
#        47671
#        65871
#        98783
#        122078
#        155507
#        195195
#        226678
#
# Disc length: 3466 seconds
#
# Revision: 0
# Processed by: cddbd v1.5.2PL0 Copyright (c) Steve Scherf et al.
# Submitted via: ExactAudioCopy v0.95b4
#
DISCID=680d8809
DTITLE=Eric Clapton - 2001-04-01 - The Spektrum - CD2
DYEAR=2001
DGENRE=Blues
TTITLE0=Travellin' Light
TTITLE1=Superman Inside
TTITLE2=Hoocie Coochie Man
TTITLE3=Have You Ever Loved A Woman
TTITLE4=Cocaine
TTITLE5=Wonderful Tonight
TTITLE6=Layla
TTITLE7=Sunshine of Your Love
TTITLE8=Somewhere Over The Rainbow
EXTD=
EXTT0=
EXTT1=
EXTT2=
EXTT3=
EXTT4=
EXTT5=
EXTT6=
EXTT7=
EXTT8=
PLAYORDER=
